Coordinates
version=1
nRows=14
nColumns=40
inDegrees=yes

Units are S.I. units (second, meters, Newtons, ...)
If the header above contains a line with 'inDegrees', this indicates whether rotational values are in degrees (yes) or radians (no).

endheader
time	pelvis_tilt	pelvis_list	pelvis_rotation	pelvis_tx	pelvis_ty	pelvis_tz	hip_flexion_r	hip_adduction_r	hip_rotation_r	knee_angle_r	knee_angle_r_beta	ankle_angle_r	subtalar_angle_r	mtp_angle_r	hip_flexion_l	hip_adduction_l	hip_rotation_l	knee_angle_l	knee_angle_l_beta	ankle_angle_l	subtalar_angle_l	mtp_angle_l	lumbar_extension	lumbar_bending	lumbar_rotation	arm_flex_r	arm_add_r	arm_rot_r	elbow_flex_r	pro_sup_r	wrist_flex_r	wrist_dev_r	arm_flex_l	arm_add_l	arm_rot_l	elbow_flex_l	pro_sup_l	wrist_flex_l	wrist_dev_l
      1.26000000	     -2.58290122	      2.97034782	    -89.89552803	      0.22383453	      0.93148207	      0.44631048	     11.15423656	     -4.14035734	     -5.67010695	     62.04196437	      1.08283655	     -7.67436773	     -0.00000000	     -0.00000000	     11.54391325	      0.35288977	      5.01178408	     13.78550474	      0.24060245	      6.71490096	     -0.00000000	      0.00000000	     -4.83192000	      1.41141460	     -4.72523604	     -0.00000000	      0.00000000	     -0.00000000	      0.00000000	      0.00000000	     -0.00000000	     -0.00000000	     -0.00000000	     -0.00000000	     -0.00000000	      0.00000000	      0.00000000	     -0.00000000	     -0.00000000
      1.27000000	     -2.74283736	      3.14619495	    -89.89327109	      0.22441930	      0.93258716	      0.45537634	     12.96754793	     -4.20159319	     -6.03463009	     62.94255668	      1.09855485	     -6.49534240	      0.00000000	      0.00000000	     10.58933484	      0.19573464	      5.01238336	     12.85913895	      0.22443431	      6.86094046	      0.00000000	      0.00000000	     -4.71197359	      1.56374443	     -4.89264088	      0.00000000	      0.00000000	      0.00000000	      0.00000000	      0.00000000	      0.00000000	      0.00000000	      0.00000000	      0.00000000	      0.00000000	      0.00000000	      0.00000000	      0.00000000	      0.00000000
      1.28000000	     -2.83445843	      3.35314764	    -89.89057082	      0.22505194	      0.93340818	      0.46416505	     14.82198807	     -4.32560969	     -6.36917616	     63.64581868	      1.11082909	     -5.03969340	      0.00000000	      0.00000000	      9.71362831	      0.13228381	      5.11825864	     11.99022067	      0.20926883	      6.93181321	      0.00000000	     -0.00000000	     -4.60663696	      1.67383499	     -5.07189732	     -0.00000000	     -0.00000000	     -0.00000000	      0.00000000	      0.00000000	      0.00000000	     -0.00000000	      0.00000000	      0.00000000	      0.00000000	      0.00000000	      0.00000000	      0.00000000	     -0.00000000
      1.29000000	     -2.95397833	      3.56273157	    -89.88667564	      0.22551112	      0.93408768	      0.47300183	     16.59048293	     -4.38067499	     -6.72791772	     63.95948656	      1.11630363	     -3.79116302	      0.00000000	      0.00000000	      8.84511875	      0.01407202	      5.14423864	     11.12250062	      0.19412426	      7.05056434	      0.00000000	      0.00000000	     -4.47911792	      1.79206088	     -5.23490603	      0.00000000	      0.00000000	      0.00000000	      0.00000000	      0.00000000	      0.00000000	      0.00000000	      0.00000000	      0.00000000	      0.00000000	      0.00000000	      0.00000000	      0.00000000	      0.00000000
      1.30000000	     -3.06592387	      3.75703141	    -89.88308430	      0.22587147	      0.93461925	      0.48182874	     18.27288812	     -4.39398247	     -7.05169770	     63.93936561	      1.11595245	     -2.61016342	      0.00000000	      0.00000000	      7.96905034	     -0.10354924	      5.14883131	     10.26780723	      0.17920704	      7.17621939	      0.00000000	      0.00000000	     -4.36691978	      1.89130066	     -5.40527158	      0.00000000	      0.00000000	      0.00000000	      0.00000000	      0.00000000	      0.00000000	      0.00000000	      0.00000000	      0.00000000	      0.00000000	      0.00000000	      0.00000000	      0.00000000	      0.00000000
      1.31000000	     -3.17323693	      3.94063453	    -89.88180098	      0.22607318	      0.93497989	      0.49060570	     19.87983243	     -4.37215102	     -7.37106573	     63.56424962	      1.10940544	     -2.12721920	      0.00000000	      0.00000000	      7.16320870	     -0.25308371	      4.77494562	      9.55298011	      0.16673096	      7.42141194	      0.00000000	      0.00000000	     -4.27291165	      1.96599709	     -5.55906586	      0.00000000	      0.00000000	      0.00000000	      0.00000000	      0.00000000	      0.00000000	      0.00000000	      0.00000000	      0.00000000	      0.00000000	      0.00000000	      0.00000000	      0.00000000	      0.00000000
      1.32000000	     -3.30467105	      4.12097424	    -89.87400366	      0.22625533	      0.93519961	      0.49947046	     21.36361038	     -4.25746007	     -7.62454331	     62.91532365	      1.09807955	     -0.50268316	      0.00000000	      0.00000000	      6.21485017	     -0.37741900	      5.20021098	      8.60586198	      0.15020063	      7.47315530	      0.00000000	      0.00000000	     -4.17909608	      2.08826441	     -5.73456729	      0.00000000	      0.00000000	      0.00000000	      0.00000000	      0.00000000	      0.00000000	      0.00000000	      0.00000000	      0.00000000	      0.00000000	      0.00000000	      0.00000000	      0.00000000	      0.00000000
      1.33000000	     -3.37648376	      4.19878843	    -89.86909710	      0.22634764	      0.93538313	      0.50839244	     22.64857707	     -4.18001201	     -7.86285742	     61.92798564	      1.08084725	      0.51814714	     -0.00000000	     -0.00000000	      5.21568093	     -0.47190542	      5.19883663	      7.76325624	      0.13549438	      7.58746285	     -0.00000000	     -0.00000000	     -4.19661099	      2.12586015	     -5.89628067	      0.00000000	     -0.00000000	     -0.00000000	      0.00000000	      0.00000000	     -0.00000000	      0.00000000	      0.00000000	     -0.00000000	      0.00000000	      0.00000000	      0.00000000	      0.00000000	      0.00000000
      1.34000000	     -3.46825525	      4.31049099	    -89.86281776	      0.22630911	      0.93534116	      0.51730548	     23.87485438	     -4.02531498	     -8.06663621	     60.62225993	      1.05805804	      1.35341196	      0.00000000	      0.00000000	      4.27233825	     -0.59659275	      5.22828310	      6.96051760	      0.12148395	      7.75932175	      0.00000000	      0.00000000	     -4.18102614	      2.17716133	     -6.05630349	      0.00000000	      0.00000000	      0.00000000	      0.00000000	      0.00000000	      0.00000000	      0.00000000	      0.00000000	      0.00000000	      0.00000000	      0.00000000	      0.00000000	      0.00000000	      0.00000000
      1.35000000	     -3.45274412	      4.55899235	    -89.85862635	      0.22621800	      0.93484755	      0.52607503	     25.21425013	     -3.94954105	     -8.18052443	     59.10922174	      1.03165054	      1.95175178	      0.00000000	      0.00000000	      3.55407677	     -0.60878008	      5.09006461	      6.27993851	      0.10960560	      8.00417422	      0.00000000	      0.00000000	     -4.01349473	      2.10145365	     -6.24211006	      0.00000000	      0.00000000	      0.00000000	      0.00000000	      0.00000000	      0.00000000	      0.00000000	      0.00000000	      0.00000000	      0.00000000	      0.00000000	      0.00000000	      0.00000000	      0.00000000
      1.36000000	     -3.58533462	      4.57839404	    -89.84751041	      0.22598087	      0.93462933	      0.53518194	     26.09314859	     -3.64223716	     -8.30453167	     57.16722016	      0.99775622	      2.73541691	      0.00000000	      0.00000000	      2.46122445	     -0.78736249	      5.35145317	      5.42117494	      0.09461735	      8.19941274	      0.00000000	      0.00000000	     -4.10351035	      2.20025589	     -6.38747727	      0.00000000	      0.00000000	      0.00000000	      0.00000000	      0.00000000	      0.00000000	      0.00000000	      0.00000000	      0.00000000	      0.00000000	      0.00000000	      0.00000000	      0.00000000	      0.00000000
      1.37000000	     -3.63238224	      4.41495528	    -89.84043610	      0.22573349	      0.93448998	      0.54446614	     26.64519011	     -3.40861367	     -8.39197230	     54.92388096	      0.95860256	      3.12712345	      0.00000000	      0.00000000	      1.19215402	     -0.88417856	      5.27316780	      4.60959044	      0.08045253	      8.33987704	      0.00000000	      0.00000000	     -4.38456913	      2.19191608	     -6.53834100	      0.00000000	      0.00000000	      0.00000000	      0.00000000	      0.00000000	      0.00000000	      0.00000000	      0.00000000	      0.00000000	      0.00000000	      0.00000000	      0.00000000	      0.00000000	      0.00000000
      1.38000000	     -3.63319050	      4.45880961	    -89.83040101	      0.22541312	      0.93381455	      0.55360701	     27.37745200	     -3.18144711	     -8.39410258	     52.50557977	      0.91639524	      3.44082731	      0.00000000	      0.00000000	      0.19637838	     -0.92839161	      5.31845503	      3.88475122	      0.06780170	      8.58380350	      0.00000000	      0.00000000	     -4.44170470	      2.13306580	     -6.69809146	      0.00000000	      0.00000000	      0.00000000	      0.00000000	      0.00000000	      0.00000000	      0.00000000	      0.00000000	      0.00000000	      0.00000000	      0.00000000	      0.00000000	      0.00000000	      0.00000000
      1.39000000	     -3.60317706	      4.49467975	    -89.81921406	      0.22505280	      0.93296854	      0.56280015	     27.99817416	     -2.96334148	     -8.35428704	     49.84495592	      0.86995860	      3.58202211	      0.00000000	      0.00000000	     -0.80288115	     -0.93945942	      5.37030141	      3.18217145	      0.05553937	      8.85350365	      0.00000000	      0.00000000	     -4.50984339	      2.04407114	     -6.85513525	      0.00000000	      0.00000000	      0.00000000	      0.00000000	      0.00000000	      0.00000000	      0.00000000	      0.00000000	      0.00000000	      0.00000000	      0.00000000	      0.00000000	      0.00000000	      0.00000000
